<?xml version="1.0" encoding="utf-8"?>
<!-- Generator: Adobe Illustrator 26.0.2, SVG Export Plug-In . SVG Version: 6.00 Build 0)  -->
<svg version="1.1" id="Layer_1" xmlns="http://www.w3.org/2000/svg" xmlns:xlink="http://www.w3.org/1999/xlink" x="0px" y="0px"
	 viewBox="0 0 172 145" style="enable-background:new 0 0 172 145;" xml:space="preserve">
<style type="text/css">
	.st0{fill:#FFFFFF;}
</style>
<g>
	<path class="st0" d="M1,112.4l21.54-60.37h12.89l21.46,60.37H42.85l-4.24-12.73h-19.5l-4.32,12.73H1z M22.95,88.58h11.91
		l-4.32-12.89c-0.65-2.04-1.39-4.4-1.63-5.87c-0.24,1.39-0.9,3.67-1.63,5.87L22.95,88.58z"/>
	<path class="st0" d="M63.9,112.4V52.03h23.33c14.68,0,23.01,7.1,23.01,19.58c0,7.83-3.34,13.38-10.03,16.81l10.61,23.98H96.37
		l-9.06-21.13h-10.2v21.13H63.9z M77.11,79.68h10.03c5.79,0,9.14-2.94,9.14-8.08c0-5.06-3.18-7.83-9.06-7.83H77.11V79.68z"/>
	<path class="st0" d="M133.24,80.91l21.78-28.88h15.58l-19.74,25.78l19.91,34.59h-15.26l-13.3-23.33l-8.97,11.75v11.58h-13.22V52.03
		h13.22V80.91z"/>
</g>
<path class="st0" d="M122.72,42.26l15.3-20.39h-25.49v-5.1h10.2l-10.2-15.3H87.03H61.54l-10.2,15.3h10.2v5.1H36.04l15.3,20.39
	 M64.59,6.57h22.43h22.43l3.06,5.1H61.54L64.59,6.57z M108.44,16.77v5.1H65.61v-5.1H108.44z M119.66,37.16H55.42l-8.16-10.2h80.56
	L119.66,37.16z"/>
<path class="st0" d="M4.88,142.8c-1.72,0.35-3.4-0.76-3.75-2.48c-0.35-1.72,0.76-3.4,2.48-3.75c3.54-0.73,7-1.89,10.27-3.47
	c3.15-1.52,6.12-3.44,8.82-5.75c1.21-1.04,2.99-1,4.16,0.02c7.93,6.77,18.23,10.16,28.54,10.16c10.33,0,20.63-3.39,28.56-10.18
	c1.21-1.04,2.99-1,4.16,0.02c7.93,6.77,18.22,10.16,28.54,10.16c10.33,0,20.63-3.39,28.57-10.18c1.21-1.04,2.99-1,4.16,0.02
	c2.69,2.3,5.66,4.21,8.79,5.72c3.27,1.58,6.73,2.74,10.27,3.47c1.72,0.35,2.82,2.03,2.48,3.75c-0.35,1.72-2.03,2.82-3.75,2.48
	c-4.06-0.84-8.03-2.17-11.77-3.97c-2.85-1.38-5.58-3.04-8.13-4.98c-8.81,6.7-19.73,10.05-30.63,10.05s-21.82-3.35-30.63-10.05
	c-8.81,6.7-19.73,10.05-30.63,10.05s-21.82-3.35-30.63-10.05c-2.55,1.94-5.28,3.6-8.13,4.98c-3.74,1.8-7.71,3.13-11.77,3.97
	L4.88,142.8z"/>
</svg>
