<?xml version="1.0" encoding="utf-8"?>
<!-- Generator: Adobe Illustrator 26.0.2, SVG Export Plug-In . SVG Version: 6.00 Build 0)  -->
<svg version="1.1" id="Layer_1" xmlns="http://www.w3.org/2000/svg" xmlns:xlink="http://www.w3.org/1999/xlink" x="0px" y="0px"
	 viewBox="0 0 172 174" style="enable-background:new 0 0 172 174;" xml:space="preserve">
<style type="text/css">
	.st0{fill:#FFFFFF;}
</style>
<g>
	<path class="st0" d="M1,112.4l21.54-60.37h12.89l21.46,60.37H42.85l-4.24-12.73h-19.5l-4.32,12.73H1z M22.95,88.58h11.91
		l-4.32-12.89c-0.65-2.04-1.39-4.4-1.63-5.87c-0.24,1.39-0.9,3.67-1.63,5.87L22.95,88.58z"/>
	<path class="st0" d="M63.9,112.4V52.03h23.33c14.68,0,23.01,7.1,23.01,19.58c0,7.83-3.34,13.38-10.03,16.81l10.61,23.98H96.37
		l-9.06-21.13h-10.2v21.13H63.9z M77.11,79.68h10.03c5.79,0,9.14-2.94,9.14-8.08c0-5.06-3.18-7.83-9.06-7.83H77.11V79.68z"/>
	<path class="st0" d="M133.24,80.91l21.78-28.88h15.58l-19.74,25.78l19.91,34.59h-15.26l-13.3-23.33l-8.97,11.75v11.58h-13.22V52.03
		h13.22V80.91z"/>
</g>
<path class="st0" d="M122.72,42.26l15.3-20.39h-25.49v-5.1h10.2l-10.2-15.3H87.03H61.54l-10.2,15.3h10.2v5.1H36.04l15.3,20.39
	 M64.59,6.57h22.43h22.43l3.06,5.1H61.54L64.59,6.57z M108.44,16.77v5.1H65.61v-5.1H108.44z M119.66,37.16H55.42l-8.16-10.2h80.56
	L119.66,37.16z"/>
<path class="st0" d="M4.88,142.8c-1.72,0.35-3.4-0.76-3.75-2.48c-0.35-1.72,0.76-3.4,2.48-3.75c3.54-0.73,7-1.89,10.27-3.47
	c3.15-1.52,6.12-3.44,8.82-5.75c1.21-1.04,2.99-1,4.16,0.02c7.93,6.77,18.23,10.16,28.54,10.16c10.33,0,20.63-3.39,28.56-10.18
	c1.21-1.04,2.99-1,4.16,0.02c7.93,6.77,18.22,10.16,28.54,10.16c10.33,0,20.63-3.39,28.57-10.18c1.21-1.04,2.99-1,4.16,0.02
	c2.69,2.3,5.66,4.21,8.79,5.72c3.27,1.58,6.73,2.74,10.27,3.47c1.72,0.35,2.82,2.03,2.48,3.75c-0.35,1.72-2.03,2.82-3.75,2.48
	c-4.06-0.84-8.03-2.17-11.77-3.97c-2.85-1.38-5.58-3.04-8.13-4.98c-8.81,6.7-19.73,10.05-30.63,10.05s-21.82-3.35-30.63-10.05
	c-8.81,6.7-19.73,10.05-30.63,10.05s-21.82-3.35-30.63-10.05c-2.55,1.94-5.28,3.6-8.13,4.98c-3.74,1.8-7.71,3.13-11.77,3.97
	L4.88,142.8z"/>
<g>
	<path class="st0" d="M9.34,162.11v5.69H6.4v-5.65L1,153.32h3.37l3.52,5.9l3.52-5.9h3.27L9.34,162.11z"/>
	<path class="st0" d="M13.87,162.71c0-3.14,2.07-5.32,5.05-5.32c3.02,0,5.05,2.17,5.05,5.32c0,3.1-2.03,5.3-5.05,5.3
		C15.92,168.01,13.87,165.81,13.87,162.71z M21.15,162.71c0-1.74-0.89-2.88-2.23-2.88s-2.23,1.14-2.23,2.88
		c0,1.7,0.89,2.88,2.23,2.88S21.15,164.41,21.15,162.71z"/>
	<path class="st0" d="M32.68,166.02c-0.95,1.2-2.34,1.99-3.6,1.99c-1.82,0-2.75-1.24-2.75-3.64v-6.6l2.71-0.27v6.39
		c0,1.05,0.41,1.59,1.22,1.59c0.77,0,1.59-0.56,2.23-1.43v-6.29l2.73-0.27v6.58l0.39,3.56l-2.71,0.27L32.68,166.02z"/>
	<path class="st0" d="M41.02,159.79c0.89-1.16,2.26-2.01,3.41-2.3l0.27,2.86c-1.34,0.04-2.59,0.52-3.54,1.43v6.02h-2.73v-6.46
		l-0.41-3.58l2.73-0.27L41.02,159.79z"/>
	<path class="st0" d="M54.76,167.8H51.8v-14.48h2.96V167.8z"/>
	<path class="st0" d="M64.8,156.01v11.79h-2.96v-11.79h-4.43l0.33-2.69h11.17l0.31,2.69H64.8z"/>
	<path class="st0" d="M80.46,168.01c-1.72,0-3.6-0.37-5.28-1.37l0.89-2.5c1.61,0.87,3.17,1.18,4.37,1.18c1.43,0,2.19-0.54,2.19-1.53
		c0-0.72-0.5-1.24-1.53-1.59l-1.99-0.6c-2.52-0.77-3.77-2.09-3.77-4.12c0-2.73,1.9-4.37,5.03-4.37c1.66,0,3.41,0.39,4.99,1.35
		l-0.89,2.48c-1.55-0.87-2.9-1.14-4.06-1.14c-1.32,0-2.07,0.5-2.07,1.43c0,0.66,0.39,1.1,1.49,1.45l1.97,0.62
		c2.61,0.83,3.83,2.17,3.83,4.35C85.64,166.39,83.69,168.01,80.46,168.01z"/>
	<path class="st0" d="M93.4,161.8c0-0.19-0.02-0.33-0.04-0.5c-0.14-0.95-0.81-1.47-1.92-1.47c-0.85,0-1.8,0.41-2.52,1.1L88,158.84
		c1.26-0.97,2.59-1.45,4.08-1.45c2.38,0,3.77,1.28,3.91,3.62c0.02,0.17,0.02,0.35,0.02,0.52v2.94c0,0.68,0.37,0.97,1.22,1.03
		l-0.39,2.5c-1.8-0.06-2.81-0.5-3.21-1.51c-0.89,0.91-2.15,1.51-3.25,1.51c-1.57,0-2.61-0.97-2.61-2.4
		C87.77,163.95,89.26,162.92,93.4,161.8z M91.49,166.04c0.64,0,1.34-0.39,1.9-1.01v-1.53c-2.01,0.48-2.88,0.99-2.88,1.7
		C90.52,165.73,90.87,166.04,91.49,166.04z"/>
	<path class="st0" d="M102.07,159.59c0.91-1.37,2.23-2.19,3.66-2.19c1.92,0,3.1,1.37,3.1,3.6v6.81h-2.73v-6.19
		c0-1.1-0.46-1.7-1.34-1.7c-0.87,0-1.82,0.72-2.54,1.84v6.04h-2.73v-6.46l-0.41-3.58l2.73-0.27L102.07,159.59z"/>
	<path class="st0" d="M116.27,165.59c0.85,0,1.63-0.33,2.28-0.95l1.37,1.78c-0.97,1.03-2.28,1.59-3.81,1.59
		c-2.98,0-4.92-2.11-4.92-5.3c0-3.21,1.94-5.32,4.92-5.32c1.51,0,2.79,0.54,3.79,1.57l-1.37,1.8c-0.64-0.6-1.41-0.93-2.26-0.93
		c-1.45,0-2.32,1.03-2.32,2.77v0.21C113.95,164.55,114.82,165.59,116.27,165.59z"/>
	<path class="st0" d="M122.2,159.96h-1.51v-2.36h1.57l0.17-2.5l2.5-0.25v2.75h3.29l-0.27,2.36h-3.02v3.99
		c0,1.06,0.48,1.55,1.28,1.55c0.43,0,0.99-0.12,1.59-0.5l0.95,2.15c-0.85,0.58-1.86,0.85-2.98,0.85c-2.15,0-3.58-1.16-3.58-3.83
		V159.96z"/>
	<path class="st0" d="M136.94,166.02c-0.95,1.2-2.34,1.99-3.6,1.99c-1.82,0-2.75-1.24-2.75-3.64v-6.6l2.71-0.27v6.39
		c0,1.05,0.41,1.59,1.22,1.59c0.77,0,1.59-0.56,2.23-1.43v-6.29l2.73-0.27v6.58l0.39,3.56l-2.71,0.27L136.94,166.02z"/>
	<path class="st0" d="M147.64,161.8c0-0.19-0.02-0.33-0.04-0.5c-0.14-0.95-0.81-1.47-1.92-1.47c-0.85,0-1.8,0.41-2.52,1.1
		l-0.91-2.09c1.26-0.97,2.59-1.45,4.08-1.45c2.38,0,3.77,1.28,3.91,3.62c0.02,0.17,0.02,0.35,0.02,0.52v2.94
		c0,0.68,0.37,0.97,1.22,1.03l-0.39,2.5c-1.8-0.06-2.81-0.5-3.21-1.51c-0.89,0.91-2.15,1.51-3.25,1.51c-1.57,0-2.61-0.97-2.61-2.4
		C142.01,163.95,143.5,162.92,147.64,161.8z M145.73,166.04c0.64,0,1.34-0.39,1.9-1.01v-1.53c-2.01,0.48-2.88,0.99-2.88,1.7
		C144.76,165.73,145.11,166.04,145.73,166.04z"/>
	<path class="st0" d="M156.31,159.79c0.89-1.16,2.26-2.01,3.41-2.3l0.27,2.86c-1.34,0.04-2.59,0.52-3.54,1.43v6.02h-2.73v-6.46
		l-0.41-3.58l2.73-0.27L156.31,159.79z"/>
	<path class="st0" d="M164.3,168.38l0.19-0.48l-3.91-10.3h2.94l2.3,6.83l2.38-6.83H171l-2.98,7.86l-1.14,2.98
		c-1.01,2.73-2.36,3.87-4.9,4.12l-0.66-2.5C163.03,170.01,163.82,169.58,164.3,168.38z"/>
</g>
</svg>
